<svg width="40" height="40" viewBox="0 0 40 40" fill="none" xmlns="http://www.w3.org/2000/svg">
    <rect x="0.5" y="0.5" width="39" height="39" rx="5.5" fill="white"/>
    <path d="M21.8032 20.0363C21.8032 24.0436 18.5768 27.2921 14.597 27.2921C10.6173 27.2921 7.39062 24.0436 7.39062 20.0363C7.39062 16.029 10.617 12.7803 14.597 12.7803C18.577 12.7803 21.8032 16.029 21.8032 20.0363Z" fill="black"/>
    <path d="M29.7064 20.0366C29.7064 23.8086 28.0932 26.8676 26.1032 26.8676C24.1132 26.8676 22.5 23.8086 22.5 20.0366C22.5 16.2646 24.113 13.2056 26.103 13.2056C28.093 13.2056 29.7062 16.2636 29.7062 20.0366" fill="black"/>
    <path d="M32.9405 20.0365C32.9405 23.4153 32.3732 26.156 31.6733 26.156C30.9733 26.156 30.4062 23.416 30.4062 20.0365C30.4062 16.657 30.9735 13.917 31.6733 13.917C32.373 13.917 32.9405 16.6567 32.9405 20.0365Z" fill="black"/>
    <rect x="0.5" y="0.5" width="39" height="39" rx="5.5" stroke="#E4E7EC"/>
</svg>
    