<svg width="40" height="40" viewBox="0 0 40 40" fill="none" xmlns="http://www.w3.org/2000/svg">
    <rect width="40" height="40" rx="6" fill="#F2F4F7"/>
    <path d="M19.384 12.9556L16.8129 16.0198L18.3449 17.3054L20.9161 14.2412C21.9767 12.9772 23.8786 12.8108 25.1426 13.8714C26.4066 14.932 26.573 16.834 25.5124 18.0979L22.9412 21.1621L24.4733 22.4477L27.0444 19.3835C28.8185 17.2692 28.5424 14.1134 26.4282 12.3393C24.3139 10.5652 21.1581 10.8413 19.384 12.9556ZM21.6556 22.6942L19.0845 25.7584C18.0239 27.0223 16.122 27.1887 14.858 26.1281C13.594 25.0675 13.4276 23.1656 14.4882 21.9016L17.0594 18.8375L15.5273 17.5519L12.9561 20.6161C11.182 22.7303 11.4581 25.8861 13.5724 27.6602C15.6867 29.4343 18.8425 29.1582 20.6166 27.0439L23.1877 23.9798L21.6556 22.6942ZM16.6631 22.4212L21.8054 16.2928L23.3375 17.5784L18.1952 23.7067L16.6631 22.4212Z" fill="#98A2B3"/>
</svg>
    