<svg width="22" height="20" viewBox="0 0 22 20" fill="none" xmlns="http://www.w3.org/2000/svg">
<path d="M11 4.5002C13.76 4.5002 16 6.7402 16 9.5002C16 10.0102 15.9 10.5002 15.76 10.9602L18.82 14.0202C20.21 12.7902 21.31 11.2502 22 9.4902C20.27 5.1102 16 2.0002 11 2.0002C9.73 2.0002 8.51 2.2002 7.36 2.5702L9.53 4.7402C10 4.6002 10.49 4.5002 11 4.5002ZM2.42 0.450195L1.01 1.8702L3.69 4.5502C2.06 5.8302 0.77 7.5302 0 9.5002C1.73 13.8902 6 17.0002 11 17.0002C12.52 17.0002 13.97 16.7002 15.31 16.1802L18.74 19.6102L20.15 18.2002L2.42 0.450195ZM11 14.5002C8.24 14.5002 6 12.2602 6 9.5002C6 8.7302 6.18 8.0002 6.49 7.3602L8.06 8.9302C8.03 9.1102 8 9.3002 8 9.5002C8 11.1602 9.34 12.5002 11 12.5002C11.2 12.5002 11.38 12.4702 11.57 12.4302L13.14 14.0002C12.49 14.3202 11.77 14.5002 11 14.5002ZM13.97 9.1702C13.82 7.7702 12.72 6.6802 11.33 6.5302L13.97 9.1702Z" fill="#98A2B3"/>
</svg>
