<svg width="40" height="40" viewBox="0 0 40 40" fill="none" xmlns="http://www.w3.org/2000/svg">
    <path d="M40 0H0V40H40V0Z" fill="#0057FF"/>
    <path d="M17.6875 19.1875C17.6875 19.1875 19.9375 19 19.9375 16.375C19.9375 13.75 18.125 12.5 15.8125 12.5H8.125V27.25H15.8125C15.8125 27.25 20.5 27.375 20.5 22.875C20.4375 22.875 20.6875 19.1875 17.6875 19.1875ZM11.5 15.125H15.8125C15.8125 15.125 16.875 15.125 16.875 16.6875C16.875 18.25 16.25 18.4375 15.5625 18.4375H11.5625V15.125H11.5ZM15.5625 24.5625H11.5V20.625H15.8125C15.8125 20.625 17.375 20.625 17.375 22.625C17.3125 24.375 16.1875 24.5625 15.5625 24.5625Z" fill="#F1F2F2"/>
    <path d="M29.625 13.375H23.5625V15.1875H29.625V13.375Z" fill="#F1F2F2"/>
    <path d="M26.6881 16.25C21.0006 16.25 21.0006 21.9375 21.0006 21.9375C21.0006 21.9375 20.6256 27.5625 26.6881 27.5625C26.6881 27.5625 31.7506 27.875 31.7506 23.625H29.1256C29.1256 23.625 29.1881 25.1875 26.7506 25.1875C26.7506 25.1875 24.1256 25.375 24.1256 22.625H31.7506C31.8131 22.625 32.6881 16.25 26.6881 16.25ZM24.1881 20.625C24.1881 20.625 24.5006 18.375 26.7506 18.375C29.0006 18.375 29.0006 20.625 29.0006 20.625H24.1881Z" fill="#F1F2F2"/>
</svg>
    
    
    