<svg width="432" height="120" viewBox="0 0 432 120" fill="none" xmlns="http://www.w3.org/2000/svg">
    <g clip-path="url(#clip0_1243_9505)">
    <path d="M53.4 50.8301C57.3817 52.7259 60.8748 55.5108 63.61 58.9701C65.9627 61.8825 67.5305 65.3488 68.1642 69.0388C68.7978 72.7288 68.4762 76.5196 67.23 80.05C66.0212 83.683 64.0118 86.9979 61.35 89.75C58.2579 92.849 54.5282 95.2376 50.42 96.75C45.5557 98.6175 40.38 99.5406 35.17 99.47C28.5418 99.3862 22.0199 97.7925 16.1 94.8101C9.87501 91.8673 4.37726 87.5851 0 82.2701L13.58 70.2701C16.9983 74.4435 21.3954 77.707 26.38 79.7701C30.4669 81.4653 34.9019 82.1513 39.31 81.7701C42.93 81.4301 45.64 80.2601 47.45 78.2801C48.319 77.4056 48.8975 76.2846 49.1068 75.0697C49.3161 73.8548 49.1462 72.6049 48.62 71.4901C47.58 68.9501 45.08 66.7734 41.12 64.9601L22.76 56.6501C15.6867 53.7234 10.4067 49.8201 6.92 44.9401C5.21239 42.6196 4.03233 39.954 3.46232 37.1299C2.89231 34.3058 2.94613 31.3912 3.62 28.5901C4.23892 25.2662 5.54047 22.1069 7.44242 19.3116C9.34438 16.5163 11.8054 14.1459 14.67 12.3501C20.5866 8.55032 27.4889 6.5718 34.52 6.66006C40.9257 6.60716 47.2558 8.04505 53.01 10.8601C58.5099 13.5133 63.431 17.2279 67.49 21.7901L53.92 33.6301C51.436 30.9062 48.6091 28.5163 45.51 26.5201C39.51 22.9001 33.6933 22.1667 28.06 24.3201C24.18 25.6734 22.1133 27.8301 21.86 30.7901C21.52 33.3701 22.9867 35.7034 26.26 37.7901C28.0862 38.9478 29.987 39.9834 31.95 40.8901C34.45 42.1034 36.8833 43.2467 39.25 44.3201L47.08 47.8701C49.9133 49.1567 52.02 50.1434 53.4 50.8301Z" fill="#175CD3"/>
    <path d="M97.3595 72.2896C97.0456 74.4465 97.3616 76.6481 98.2695 78.6296C99.0405 80.2715 100.4 81.5636 102.08 82.2496C103.992 82.9747 106.038 83.2816 108.08 83.1496C110.675 83.0176 113.241 82.5401 115.71 81.7296V97.7296C107.71 99.5429 101.29 99.7596 96.4495 98.3796C91.6666 97.0662 87.432 94.2513 84.3695 90.3496C81.2811 86.3465 79.6607 81.4043 79.7795 76.3496V11.3496H97.3595V27.8096H115.72V43.1996H97.3595V72.2896Z" fill="#175CD3"/>
    <path d="M144.301 40.9996V66.6096C144.275 68.5971 144.658 70.5687 145.425 72.4024C146.192 74.236 147.327 75.8926 148.761 77.2696C150.89 79.379 153.593 80.8149 156.532 81.3982C159.472 81.9814 162.518 81.6862 165.291 80.5493C168.064 79.4124 170.441 77.4842 172.125 75.0052C173.809 72.5263 174.726 69.6063 174.761 66.6096V27.8096H192.351V66.6096C192.441 73.8565 190.045 80.9155 185.561 86.6096C182.497 90.6099 178.553 93.8509 174.034 96.0815C169.516 98.3121 164.545 99.4724 159.506 99.4724C154.467 99.4724 149.496 98.3121 144.977 96.0815C140.459 93.8509 136.515 90.6099 133.451 86.6096C128.963 80.9178 126.566 73.8573 126.661 66.6096V27.8096H144.251L144.301 40.9996Z" fill="#175CD3"/>
    <path d="M202.481 63.1098C202.463 58.3299 203.393 53.5938 205.216 49.175C207.039 44.7562 209.719 40.7422 213.101 37.3645C216.483 33.9869 220.501 31.3125 224.922 29.4958C229.343 27.6791 234.081 26.756 238.861 26.7798C241.028 26.7786 243.192 26.9525 245.331 27.2998L257.611 34.4098V6.08984H275.201V98.2798H257.561V91.8098L245.281 98.8098C243.151 99.239 240.984 99.4567 238.811 99.4598C229.182 99.4334 219.955 95.596 213.147 88.7863C206.339 81.9767 202.504 72.7488 202.481 63.1198V63.1098ZM225.561 49.8598C223.785 51.5734 222.38 53.6338 221.434 55.9132C220.487 58.1926 220.02 60.6422 220.061 63.1098C220.011 65.5772 220.475 68.028 221.421 70.307C222.368 72.586 223.778 74.6437 225.561 76.3498C229.095 79.8303 233.856 81.7811 238.816 81.7811C243.776 81.7811 248.537 79.8303 252.071 76.3498C253.844 74.6475 255.247 72.5973 256.192 70.3277C257.137 68.0581 257.603 65.6179 257.561 63.1598C257.562 59.4517 256.464 55.8265 254.404 52.743C252.344 49.6595 249.416 47.2564 245.99 45.8378C242.564 44.4192 238.794 44.0489 235.157 44.7737C231.521 45.4986 228.181 47.286 225.561 49.9098V49.8598Z" fill="#175CD3"/>
    <path d="M353.861 27.8096L330.711 91.8096C330.371 92.8096 329.891 94.0596 329.291 95.6996C328.691 97.3396 328.151 98.8396 327.681 100.22C327.211 101.6 326.681 102.89 326.191 104.1C324.118 109.433 321.338 113.433 317.851 116.1C314.364 118.766 309.948 120.08 304.601 120.04H284.711V102.16H302.301C304.541 102.16 306.114 101.71 307.021 100.81C308.167 99.4684 309.024 97.9061 309.541 96.2196L284.711 27.8096H303.461L303.981 29.3596L310.451 46.9496L319.371 71.5196L330.861 39.5796L335.131 27.8096H353.861Z" fill="#175CD3"/>
    <path d="M363.449 27.8096H381.039V98.2796H363.449V27.8096Z" fill="#175CD3"/>
    <path d="M413.359 72.2896C413.05 74.4465 413.366 76.6467 414.269 78.6296C415.044 80.2721 416.407 81.564 418.089 82.2496C420.002 82.9756 422.048 83.2825 424.089 83.1496C426.681 83.0176 429.244 82.54 431.709 81.7296V97.7296C423.709 99.5429 417.289 99.7596 412.449 98.3796C407.666 97.0662 403.432 94.2513 400.369 90.3496C397.284 86.3446 395.664 81.4037 395.779 76.3496V11.3496H413.359V27.8096H431.719V43.1996H413.359V72.2896Z" fill="#175CD3"/>
    <path d="M369.28 0H375.22V3.77L374.27 7.63L377 4.9L380.4 2.9L381.86 5.56L383.36 8.1L380.07 9.99L376.3 10.99L380.07 11.99L383.36 13.99L381.86 16.58L380.45 19.13L377.05 17.24L374.32 14.51L375.27 18.28V22.14H369.33V18.28L370.27 14.51L367.54 17.24L364.24 19.13L362.73 16.58L361.23 14.04L364.53 12.04L368.29 11.04L364.53 10.04L361.23 8.15L362.73 5.51L364.24 2.98L367.54 4.98L370.27 7.71L369.33 3.85L369.28 0Z" fill="#175CD3"/>
    </g>
    <defs>
        <clipPath id="clip0_1243_9505">
            <rect width="431.72" height="120" fill="white"/>
        </clipPath>
    </defs>
</svg>
