<svg width="16" height="14" viewBox="0 0 16 14" fill="none" xmlns="http://www.w3.org/2000/svg">
    <path d="M9.59 2L10.9625 3.5H14V12.5H2V3.5H5.0375L6.41 2H9.59ZM10.25 0.5H5.75L4.3775 2H2C1.175 2 0.5 2.675 0.5 3.5V12.5C0.5 13.325 1.175 14 2 14H14C14.825 14 15.5 13.325 15.5 12.5V3.5C15.5 2.675 14.825 2 14 2H11.6225L10.25 0.5ZM8 5.75C9.2375 5.75 10.25 6.7625 10.25 8C10.25 9.2375 9.2375 10.25 8 10.25C6.7625 10.25 5.75 9.2375 5.75 8C5.75 6.7625 6.7625 5.75 8 5.75ZM8 4.25C5.93 4.25 4.25 5.93 4.25 8C4.25 10.07 5.93 11.75 8 11.75C10.07 11.75 11.75 10.07 11.75 8C11.75 5.93 10.07 4.25 8 4.25Z" fill="#98A2B3"/>
</svg>
