<svg width="18" height="18" viewBox="0 0 18 18" fill="none" xmlns="http://www.w3.org/2000/svg">
<g clip-path="url(#clip0_271_927)">
<path d="M19 17.5938C19 18.3704 18.3704 19 17.5938 19H2.40625C1.62958 19 1 18.3704 1 17.5938V2.40625C1 1.62958 1.62958 1 2.40625 1H17.5938C18.3704 1 19 1.62958 19 2.40625V17.5938Z" fill="#FFE812"/>
<path d="M9 1C4.0294 1 0 4.17709 0 8.09615C0 10.6299 1.68456 12.8532 4.21858 14.1086C4.08072 14.584 3.33268 17.1672 3.30291 17.3701C3.30291 17.3701 3.285 17.5226 3.38374 17.5808C3.48248 17.6389 3.59862 17.5937 3.59862 17.5937C3.88177 17.5542 6.88214 15.4466 7.40146 15.0807C7.92026 15.1541 8.45446 15.1923 9 15.1923C13.9706 15.1923 18 12.0153 18 8.09615C18 4.17709 13.9706 1 9 1Z" fill="black"/>
<path d="M4.02449 10.5729C3.73813 10.5729 3.50526 10.3505 3.50526 10.0771V6.99241H2.69509C2.41409 6.99241 2.18555 6.7643 2.18555 6.484C2.18555 6.2037 2.41418 5.97559 2.69509 5.97559H5.35389C5.63488 5.97559 5.86343 6.2037 5.86343 6.484C5.86343 6.7643 5.6348 6.99241 5.35389 6.99241H4.54372V10.0771C4.54372 10.3505 4.31084 10.5729 4.02449 10.5729ZM8.57745 10.5662C8.36093 10.5662 8.1953 10.4783 8.14536 10.3369L7.88826 9.66377L6.30495 9.66368L6.04767 10.3372C5.99791 10.4784 5.83236 10.5662 5.61584 10.5662C5.50195 10.5663 5.38938 10.5419 5.28579 10.4945C5.14265 10.4285 5.00506 10.247 5.16273 9.75723L6.40473 6.48815C6.49222 6.23953 6.75798 5.98337 7.09617 5.97567C7.43532 5.98329 7.70108 6.23953 7.78874 6.48867L9.03022 9.75628C9.18824 10.2471 9.05064 10.4288 8.90751 10.4946C8.80389 10.5419 8.69133 10.5663 8.57745 10.5662C8.57745 10.5662 8.57736 10.5662 8.57745 10.5662ZM7.61523 8.74404L7.0966 7.27072L6.57798 8.74404H7.61523ZM9.86584 10.4972C9.59142 10.4972 9.36824 10.2836 9.36824 10.0213V6.49482C9.36824 6.20846 9.60605 5.97559 9.89829 5.97559C10.1905 5.97559 10.4283 6.20846 10.4283 6.49482V9.5453H11.5317C11.8061 9.5453 12.0293 9.75887 12.0293 10.0213C12.0293 10.2836 11.8061 10.4972 11.5317 10.4972H9.86584ZM12.7505 10.5662C12.4642 10.5662 12.2313 10.3333 12.2313 10.047V6.49482C12.2313 6.20846 12.4642 5.97559 12.7505 5.97559C13.0369 5.97559 13.2697 6.20846 13.2697 6.49482V7.61082L14.7184 6.16216C14.7929 6.08765 14.8953 6.04663 15.0064 6.04663C15.136 6.04663 15.2662 6.10254 15.3637 6.19998C15.4547 6.29085 15.5089 6.40776 15.5164 6.52917C15.5239 6.65162 15.4831 6.76387 15.4018 6.8453L14.2185 8.02836L15.4966 9.72158C15.5379 9.7759 15.568 9.83787 15.5851 9.90391C15.6022 9.96994 15.606 10.0387 15.5963 10.1062C15.5871 10.1738 15.5645 10.2389 15.5299 10.2976C15.4953 10.3564 15.4494 10.4078 15.3949 10.4487C15.3051 10.5169 15.1953 10.5537 15.0825 10.5535C15.0021 10.5538 14.9227 10.5354 14.8506 10.4995C14.7786 10.4637 14.716 10.4115 14.6678 10.3471L13.4501 8.73365L13.2699 8.91383V10.0467C13.2698 10.1844 13.215 10.3164 13.1176 10.4138C13.0202 10.5112 12.8882 10.566 12.7505 10.5662Z" fill="#FFE812"/>
</g>
<defs>
<clipPath id="clip0_271_927">
<rect width="18" height="18" fill="white"/>
</clipPath>
</defs>
</svg>
