<svg width="10" height="15" viewBox="0 0 10 15" fill="none" xmlns="http://www.w3.org/2000/svg">
    <path d="M6.06063 7.5L9.26563 4.49531L9.92656 3.87568C10.0241 3.78428 10.0241 3.63574 9.92656 3.54434L9.21938 2.88135C9.12188 2.78994 8.96344 2.78994 8.86594 2.88135L5 6.50566L1.13406 2.88105C1.03656 2.78965 0.878125 2.78965 0.780625 2.88105L0.073125 3.54404C-0.024375 3.63545 -0.024375 3.78398 0.073125 3.87539L3.93938 7.5L0.073125 11.1243C-0.024375 11.2157 -0.024375 11.3643 0.073125 11.4557L0.780313 12.1187C0.877813 12.2101 1.03625 12.2101 1.13375 12.1187L5 8.49434L8.205 11.499L8.86594 12.1187C8.96344 12.2101 9.12188 12.2101 9.21938 12.1187L9.92656 11.4557C10.0241 11.3643 10.0241 11.2157 9.92656 11.1243L6.06063 7.5Z" fill="#98A2B3"/>
</svg>
    